# Exported from Wings 3D 1.4.1
mtllib foobar.mtl
o cube3
#11 vertices, 13 faces
v -1.00000000 -1.00000000 1.00000000
v -1.00000000 1.00000000 1.00000000
v 1.00000000 1.00000000 1.00000000
v 1.00000000 -1.00000000 1.00000000
v -1.00000000 -1.00000000 -1.00000000
v -1.00000000 1.00000000 -1.00000000
v 1.00000000 1.00000000 -1.00000000
v 1.00000000 -1.00000000 -1.00000000
v -0.67378807 1.00000000 -0.67378807
v -0.67378807 1.00000000 0.21245474
v 0.21245474 1.00000000 -0.67378807
vt 0.0000000e+0 0.0000000e+0
vt 0.0000000e+0 1.00000000
vt 0.0000000e+0 1.00000000
vt 2.2204460e-16 0.0000000e+0
vt 0.10154600 0.62257687
vt 0.10154600 0.89845400
vt 0.37742313 0.89845400
vt 0.62257687 0.0000000e+0
vt 0.62257687 0.62257687
vt 1.00000000 1.00000000
vt 1.00000000 1.6653345e-16
vn -0.57735027 -0.57735027 0.57735027
vn -0.23570226 0.94280904 0.23570226
vn 0.57735027 0.57735027 0.57735027
vn 0.57735027 -0.57735027 0.57735027
vn -0.57735027 -0.57735027 -0.57735027
vn -0.23570226 0.94280904 -0.23570226
vn 0.30151134 0.90453403 -0.30151134
vn 0.57735027 -0.57735027 -0.57735027
vn 0.0000000e+0 1.00000000 0.0000000e+0
vn 0.0000000e+0 1.00000000 0.0000000e+0
vn 0.0000000e+0 1.00000000 0.0000000e+0
g cube3_cube3_auv
usemtl cube3_auv
s 1
f 3/8/3 7/9/7 2/1/2
f 4/4/4 8/11/8 7/10/7 3/2/3
f 9/6/9 6/3/6 10/5/10
f 9/6/9 11/7/11 6/3/6
g cube3_default
usemtl default
s 1
f 1//1 4//4 3//3 2//2
f 1//1 5//5 8//8 4//4
f 2//2 6//6 5//5 1//1
f 2//2 10//10 6//6
f 6//6 7//7 8//8 5//5
f 6//6 11//11 7//7
f 7//7 11//11 2//2
f 10//10 2//2 11//11
f 10//10 11//11 9//9
