# Exported from Wings 3D 1.0.2
mtllib sphere.mtl
o sphere5
#72 vertices, 80 faces
v 0.38268343 0.92387953 0.0000000e+0
v 0.30959740 0.92387953 0.22493568
v 0.11825568 0.92387953 0.36395357
v -0.11825568 0.92387953 0.36395357
v -0.30959740 0.92387953 0.22493568
v -0.38268343 0.92387953 4.6863656e-17
v -0.30959740 0.92387953 -0.22493568
v -0.11825568 0.92387953 -0.36395357
v 0.11825568 0.92387953 -0.36395357
v 0.30959740 0.92387953 -0.22493568
v 0.70710678 0.70710678 0.0000000e+0
v 0.57206140 0.70710678 0.41562694
v 0.21850801 0.70710678 0.67249851
v -0.21850801 0.70710678 0.67249851
v -0.57206140 0.70710678 0.41562694
v -0.70710678 0.70710678 8.6592746e-17
v -0.57206140 0.70710678 -0.41562694
v -0.21850801 0.70710678 -0.67249851
v 0.21850801 0.70710678 -0.67249851
v 0.57206140 0.70710678 -0.41562694
v 0.92387953 0.38268343 0.0000000e+0
v 0.74743424 0.38268343 0.54304276
v 0.28549448 0.38268343 0.87866165
v -0.28549448 0.38268343 0.87866165
v -0.74743424 0.38268343 0.54304276
v -0.92387953 0.38268343 1.1313887e-16
v -0.74743424 0.38268343 -0.54304276
v -0.28549448 0.38268343 -0.87866165
v 0.28549448 0.38268343 -0.87866165
v 0.74743424 0.38268343 -0.54304276
v 1.00000000 6.1230318e-17 0.0000000e+0
v 0.80901699 6.1230318e-17 0.58778525
v 0.30901699 6.1230318e-17 0.95105652
v -0.30901699 6.1230318e-17 0.95105652
v -0.80901699 6.1230318e-17 0.58778525
v -1.00000000 6.1230318e-17 1.2246064e-16
v -0.80901699 6.1230318e-17 -0.58778525
v -0.30901699 6.1230318e-17 -0.95105652
v 0.30901699 6.1230318e-17 -0.95105652
v 0.80901699 6.1230318e-17 -0.58778525
v 0.92387953 -0.38268343 0.0000000e+0
v 0.74743424 -0.38268343 0.54304276
v 0.28549448 -0.38268343 0.87866165
v -0.28549448 -0.38268343 0.87866165
v -0.74743424 -0.38268343 0.54304276
v -0.92387953 -0.38268343 1.1313887e-16
v -0.74743424 -0.38268343 -0.54304276
v -0.28549448 -0.38268343 -0.87866165
v 0.28549448 -0.38268343 -0.87866165
v 0.74743424 -0.38268343 -0.54304276
v 0.70710678 -0.70710678 0.0000000e+0
v 0.57206140 -0.70710678 0.41562694
v 0.21850801 -0.70710678 0.67249851
v -0.21850801 -0.70710678 0.67249851
v -0.57206140 -0.70710678 0.41562694
v -0.70710678 -0.70710678 8.6592746e-17
v -0.57206140 -0.70710678 -0.41562694
v -0.21850801 -0.70710678 -0.67249851
v 0.21850801 -0.70710678 -0.67249851
v 0.57206140 -0.70710678 -0.41562694
v 0.38268343 -0.92387953 0.0000000e+0
v 0.30959740 -0.92387953 0.22493568
v 0.11825568 -0.92387953 0.36395357
v -0.11825568 -0.92387953 0.36395357
v -0.30959740 -0.92387953 0.22493568
v -0.38268343 -0.92387953 4.6863656e-17
v -0.30959740 -0.92387953 -0.22493568
v -0.11825568 -0.92387953 -0.36395357
v 0.11825568 -0.92387953 -0.36395357
v 0.30959740 -0.92387953 -0.22493568
v 0.0000000e+0 1.00000000 0.0000000e+0
v 0.0000000e+0 -1.00000000 0.0000000e+0
vn 0.38139410 0.92441254 -7.1387495e-18
vn 0.30855431 0.92441254 0.22417783
vn 0.11785726 0.92441254 0.36272735
vn -0.11785726 0.92441254 0.36272735
vn -0.30855431 0.92441254 0.22417783
vn -0.38139410 0.92441254 6.4248745e-17
vn -0.30855431 0.92441254 -0.22417783
vn -0.11785726 0.92441254 -0.36272735
vn 0.11785726 0.92441254 -0.36272735
vn 0.30855431 0.92441254 -0.22417783
vn 0.70575598 0.70845501 -4.3548874e-17
vn 0.57096858 0.70845501 0.41483296
vn 0.21809059 0.70845501 0.67121382
vn -0.21809059 0.70845501 0.67121382
vn -0.57096858 0.70845501 0.41483296
vn -0.70575598 0.70845501 1.3064662e-16
vn -0.57096858 0.70845501 -0.41483296
vn -0.21809059 0.70845501 -0.67121382
vn 0.21809059 0.70845501 -0.67121382
vn 0.57096858 0.70845501 -0.41483296
vn 0.92337871 0.38389029 -7.3766077e-17
vn 0.74702907 0.38389029 0.54274839
vn 0.28533971 0.38389029 0.87818534
vn -0.28533971 0.38389029 0.87818534
vn -0.74702907 0.38389029 0.54274839
vn -0.92337871 0.38389029 1.9179180e-16
vn -0.74702907 0.38389029 -0.54274839
vn -0.28533971 0.38389029 -0.87818534
vn 0.28533971 0.38389029 -0.87818534
vn 0.74702907 0.38389029 -0.54274839
vn 1.00000000 0.0000000e+0 -7.4253912e-17
vn 0.80901699 -4.4552347e-17 0.58778525
vn 0.30901699 2.2276174e-17 0.95105652
vn -0.30901699 9.6530085e-17 0.95105652
vn -0.80901699 2.2276174e-17 0.58778525
vn -1.00000000 -1.4850782e-17 2.3761252e-16
vn -0.80901699 -5.1977738e-17 -0.58778525
vn -0.30901699 2.2276174e-17 -0.95105652
vn 0.30901699 3.7126956e-17 -0.95105652
vn 0.80901699 -4.4552347e-17 -0.58778525
vn 0.92337871 -0.38389029 -2.9506431e-17
vn 0.74702907 -0.38389029 0.54274839
vn 0.28533971 -0.38389029 0.87818534
vn -0.28533971 -0.38389029 0.87818534
vn -0.74702907 -0.38389029 0.54274839
vn -0.92337871 -0.38389029 2.3605145e-16
vn -0.74702907 -0.38389029 -0.54274839
vn -0.28533971 -0.38389029 -0.87818534
vn 0.28533971 -0.38389029 -0.87818534
vn 0.74702907 -0.38389029 -0.54274839
vn 0.70575598 -0.70845501 7.2581457e-18
vn 0.57096858 -0.70845501 0.41483296
vn 0.21809059 -0.70845501 0.67121382
vn -0.21809059 -0.70845501 0.67121382
vn -0.57096858 -0.70845501 0.41483296
vn -0.70575598 -0.70845501 1.8871179e-16
vn -0.57096858 -0.70845501 -0.41483296
vn -0.21809059 -0.70845501 -0.67121382
vn 0.21809059 -0.70845501 -0.67121382
vn 0.57096858 -0.70845501 -0.41483296
vn 0.38139410 -0.92441254 1.4277499e-17
vn 0.30855431 -0.92441254 0.22417783
vn 0.11785726 -0.92441254 0.36272735
vn -0.11785726 -0.92441254 0.36272735
vn -0.30855431 -0.92441254 0.22417783
vn -0.38139410 -0.92441254 7.1387495e-17
vn -0.30855431 -0.92441254 -0.22417783
vn -0.11785726 -0.92441254 -0.36272735
vn 0.11785726 -0.92441254 -0.36272735
vn 0.30855431 -0.92441254 -0.22417783
vn -1.4178069e-17 1.00000000 1.1342455e-17
vn -8.5068413e-18 -1.00000000 -2.8356138e-18
g sphere5_default
usemtl default
f 1//1 11//11 20//20 10//10
f 1//1 71//71 2//2
f 2//2 12//12 11//11 1//1
f 2//2 71//71 3//3
f 3//3 13//13 12//12 2//2
f 3//3 71//71 4//4
f 4//4 14//14 13//13 3//3
f 4//4 71//71 5//5
f 5//5 15//15 14//14 4//4
f 5//5 71//71 6//6
f 6//6 16//16 15//15 5//5
f 6//6 71//71 7//7
f 7//7 17//17 16//16 6//6
f 7//7 71//71 8//8
f 8//8 18//18 17//17 7//7
f 8//8 71//71 9//9
f 9//9 19//19 18//18 8//8
f 9//9 71//71 10//10
f 10//10 20//20 19//19 9//9
f 10//10 71//71 1//1
f 11//11 21//21 30//30 20//20
f 12//12 22//22 21//21 11//11
f 13//13 23//23 22//22 12//12
f 14//14 24//24 23//23 13//13
f 15//15 25//25 24//24 14//14
f 16//16 26//26 25//25 15//15
f 17//17 27//27 26//26 16//16
f 18//18 28//28 27//27 17//17
f 19//19 29//29 28//28 18//18
f 20//20 30//30 29//29 19//19
f 21//21 31//31 40//40 30//30
f 22//22 32//32 31//31 21//21
f 23//23 33//33 32//32 22//22
f 24//24 34//34 33//33 23//23
f 25//25 35//35 34//34 24//24
f 26//26 36//36 35//35 25//25
f 27//27 37//37 36//36 26//26
f 28//28 38//38 37//37 27//27
f 29//29 39//39 38//38 28//28
f 30//30 40//40 39//39 29//29
f 31//31 41//41 50//50 40//40
f 32//32 42//42 41//41 31//31
f 33//33 43//43 42//42 32//32
f 34//34 44//44 43//43 33//33
f 35//35 45//45 44//44 34//34
f 36//36 46//46 45//45 35//35
f 37//37 47//47 46//46 36//36
f 38//38 48//48 47//47 37//37
f 39//39 49//49 48//48 38//38
f 40//40 50//50 49//49 39//39
f 41//41 51//51 60//60 50//50
f 42//42 52//52 51//51 41//41
f 43//43 53//53 52//52 42//42
f 44//44 54//54 53//53 43//43
f 45//45 55//55 54//54 44//44
f 46//46 56//56 55//55 45//45
f 47//47 57//57 56//56 46//46
f 48//48 58//58 57//57 47//47
f 49//49 59//59 58//58 48//48
f 50//50 60//60 59//59 49//49
f 51//51 61//61 70//70 60//60
f 52//52 62//62 61//61 51//51
f 53//53 63//63 62//62 52//52
f 54//54 64//64 63//63 53//53
f 55//55 65//65 64//64 54//54
f 56//56 66//66 65//65 55//55
f 57//57 67//67 66//66 56//56
f 58//58 68//68 67//67 57//57
f 59//59 69//69 68//68 58//58
f 60//60 70//70 69//69 59//59
f 61//61 72//72 70//70
f 62//62 72//72 61//61
f 63//63 72//72 62//62
f 64//64 72//72 63//63
f 65//65 72//72 64//64
f 66//66 72//72 65//65
f 67//67 72//72 66//66
f 68//68 72//72 67//67
f 69//69 72//72 68//68
f 70//70 72//72 69//69
