# Exported from Wings 3D 1.4.1
mtllib wheal.mtl
o cylinder2
#132 vertices, 132 faces
v 0.99989940 6.3776860e-2 8.2000000e-2
v 0.94253339 -0.33984873 8.2000000e-2
v 0.87564927 -0.48693405 8.2000000e-2
v 0.60917349 -0.79547109 8.2000000e-2
v 0.47338668 -0.88304684 8.2000000e-2
v 8.2405315e-2 -0.99853700 8.2000000e-2
v -7.9172833e-2 -0.99879850 8.2000000e-2
v -0.47052597 -0.88457447 8.2000000e-2
v -0.60659553 -0.79743869 8.2000000e-2
v -0.87406858 -0.48976579 8.2000000e-2
v -0.94142844 -0.34289773 8.2000000e-2
v -1.00010060 6.0540064e-2 8.2000000e-2
v -0.97736447 0.22051083 8.2000000e-2
v -0.80860774 0.59162488 8.2000000e-2
v -0.70299418 0.71390877 8.2000000e-2
v -0.36038764 0.93487297 8.2000000e-2
v -0.20542821 0.98064571 8.2000000e-2
v 0.20225299 0.98130550 8.2000000e-2
v 0.35735976 0.93603457 8.2000000e-2
v 0.70067973 0.71618047 8.2000000e-2
v 0.80668854 0.59423907 8.2000000e-2
v 0.97664560 0.22367320 8.2000000e-2
v 0.99989940 6.3776860e-2 -8.2000000e-2
v 0.94253339 -0.33984873 -8.2000000e-2
v 0.87564927 -0.48693405 -8.2000000e-2
v 0.60917349 -0.79547109 -8.2000000e-2
v 0.47338668 -0.88304684 -8.2000000e-2
v 8.2405315e-2 -0.99853700 -8.2000000e-2
v -7.9172833e-2 -0.99879850 -8.2000000e-2
v -0.47052597 -0.88457447 -8.2000000e-2
v -0.60659553 -0.79743869 -8.2000000e-2
v -0.87406858 -0.48976579 -8.2000000e-2
v -0.94142844 -0.34289773 -8.2000000e-2
v -1.00010060 6.0540064e-2 -8.2000000e-2
v -0.97736447 0.22051083 -8.2000000e-2
v -0.80860774 0.59162488 -8.2000000e-2
v -0.70299418 0.71390877 -8.2000000e-2
v -0.36038764 0.93487297 -8.2000000e-2
v -0.20542821 0.98064571 -8.2000000e-2
v 0.20225299 0.98130550 -8.2000000e-2
v 0.35735976 0.93603457 -8.2000000e-2
v 0.70067973 0.71618047 -8.2000000e-2
v 0.80668854 0.59423907 -8.2000000e-2
v 0.97664560 0.22367320 -8.2000000e-2
v 0.84567837 -2.7804772e-2 8.2000000e-2
v 0.81993650 -0.20892384 8.2000000e-2
v 0.69639752 -0.48059922 8.2000000e-2
v 0.57682175 -0.61904916 8.2000000e-2
v 0.32601539 -0.78080680 8.2000000e-2
v 0.15057017 -0.83263075 8.2000000e-2
v -0.14787433 -0.83311375 8.2000000e-2
v -0.32348637 -0.78185796 8.2000000e-2
v -0.57481500 -0.62091297 8.2000000e-2
v -0.69483828 -0.48285079 8.2000000e-2
v -0.81925596 -0.21157670 8.2000000e-2
v -0.84558394 -3.0541908e-2 8.2000000e-2
v -0.80358894 0.26493367 8.2000000e-2
v -0.72786267 0.43146381 8.2000000e-2
v -0.53278812 0.65732947 8.2000000e-2
v -0.37905015 0.75648282 8.2000000e-2
v -9.2830827e-2 0.84102781 8.2000000e-2
v 9.0108114e-2 0.84132388 8.2000000e-2
v 0.37659959 0.75770576 8.2000000e-2
v 0.53065769 0.65905055 8.2000000e-2
v 0.72646231 0.43381749 8.2000000e-2
v 0.80272720 0.26753333 8.2000000e-2
v 0.84567837 -2.7804772e-2 -8.2000000e-2
v 0.81993650 -0.20892384 -8.2000000e-2
v 0.69639752 -0.48059922 -8.2000000e-2
v 0.57682175 -0.61904916 -8.2000000e-2
v 0.32601539 -0.78080680 -8.2000000e-2
v 0.15057017 -0.83263075 -8.2000000e-2
v -0.14787433 -0.83311375 -8.2000000e-2
v -0.32348637 -0.78185796 -8.2000000e-2
v -0.57481500 -0.62091297 -8.2000000e-2
v -0.69483828 -0.48285079 -8.2000000e-2
v -0.81925596 -0.21157670 -8.2000000e-2
v -0.84558394 -3.0541908e-2 -8.2000000e-2
v -0.80358894 0.26493367 -8.2000000e-2
v -0.72786267 0.43146381 -8.2000000e-2
v -0.53278812 0.65732947 -8.2000000e-2
v -0.37905015 0.75648282 -8.2000000e-2
v -9.2830827e-2 0.84102781 -8.2000000e-2
v 9.0108114e-2 0.84132388 -8.2000000e-2
v 0.37659959 0.75770576 -8.2000000e-2
v 0.53065769 0.65905055 -8.2000000e-2
v 0.72646231 0.43381749 -8.2000000e-2
v 0.80272720 0.26753333 -8.2000000e-2
v 0.25585854 -0.62784041 8.2000000e-2
v 0.46641113 -0.49204445 8.2000000e-2
v 0.55467795 -0.38984535 8.2000000e-2
v 0.65838925 -0.16177315 8.2000000e-2
v 0.67739104 -2.8077128e-2 8.2000000e-2
v 0.64133342 0.21985999 8.2000000e-2
v 0.58503723 0.34260538 8.2000000e-2
v 0.42065874 0.53168913 8.2000000e-2
v 0.30693824 0.60451309 8.2000000e-2
v 6.6427907e-2 0.67471071 8.2000000e-2
v -6.8611453e-2 0.67449216 8.2000000e-2
v -0.30889331 0.60351643 8.2000000e-2
v -0.42237750 0.53032476 8.2000000e-2
v -0.58614311 0.34070995 8.2000000e-2
v -0.64204170 0.21778298 8.2000000e-2
v -0.67729661 -3.0269552e-2 8.2000000e-2
v -0.65786217 -0.16390337 8.2000000e-2
v -0.55341320 -0.39163868 8.2000000e-2
v -0.46481605 -0.49355154 8.2000000e-2
v -0.25382502 -0.62866528 8.2000000e-2
v -0.12419413 -0.66650058 8.2000000e-2
v 0.12635080 -0.66609510 8.2000000e-2
v -0.30889331 0.60351643 -8.2000000e-2
v -6.8611453e-2 0.67449216 -8.2000000e-2
v 6.6427907e-2 0.67471071 -8.2000000e-2
v 0.30693824 0.60451309 -8.2000000e-2
v 0.42065874 0.53168913 -8.2000000e-2
v 0.58503723 0.34260538 -8.2000000e-2
v 0.64133342 0.21985999 -8.2000000e-2
v 0.67739104 -2.8077128e-2 -8.2000000e-2
v 0.65838925 -0.16177315 -8.2000000e-2
v 0.55467795 -0.38984535 -8.2000000e-2
v 0.46641113 -0.49204445 -8.2000000e-2
v 0.25585854 -0.62784041 -8.2000000e-2
v 0.12635080 -0.66609510 -8.2000000e-2
v -0.12419413 -0.66650058 -8.2000000e-2
v -0.25382502 -0.62866528 -8.2000000e-2
v -0.46481605 -0.49355154 -8.2000000e-2
v -0.55341320 -0.39163868 -8.2000000e-2
v -0.65786217 -0.16390337 -8.2000000e-2
v -0.67729661 -3.0269552e-2 -8.2000000e-2
v -0.64204170 0.21778298 -8.2000000e-2
v -0.58614311 0.34070995 -8.2000000e-2
v -0.42237750 0.53032476 -8.2000000e-2
vn 0.77334426 -0.36905015 0.51550038
vn 0.84554646 0.13896237 0.51550038
vn 0.45105501 -0.72856620 0.51550041
vn 0.78644769 -0.34023431 0.51550038
vn -1.4441042e-2 -0.85676762 0.51550043
vn 0.47765734 -0.71140902 0.51550041
vn -0.47535216 -0.71295136 0.51550041
vn 1.7214141e-2 -0.85671639 0.51550043
vn -0.78534231 -0.34277809 0.51550038
vn -0.44869443 -0.73002235 0.51550041
vn -0.84599183 0.13622479 0.51550038
vn -0.77214567 -0.37155137 0.51550038
vn -0.63804494 0.57197727 0.51550040
vn -0.85044612 0.10488453 0.51550037
vn -0.22752328 0.82613102 0.51550043
vn -0.65873595 0.54802033 0.51550040
vn 0.25523543 0.81799400 0.51550042
vn -0.25788177 0.81716357 0.51550042
vn 0.65695868 0.55014965 0.51550040
vn 0.22484807 0.82686314 0.51550043
vn 0.85010217 0.10763669 0.51550037
vn 0.63619023 0.57403949 0.51550040
vn 0.77334426 -0.36905015 -0.51550038
vn 0.84554646 0.13896237 -0.51550038
vn 0.45105501 -0.72856620 -0.51550041
vn 0.78644769 -0.34023431 -0.51550038
vn -1.4441042e-2 -0.85676762 -0.51550043
vn 0.47765734 -0.71140902 -0.51550041
vn -0.47535216 -0.71295136 -0.51550041
vn 1.7214141e-2 -0.85671639 -0.51550043
vn -0.78534231 -0.34277809 -0.51550038
vn -0.44869443 -0.73002235 -0.51550041
vn -0.84599183 0.13622479 -0.51550038
vn -0.77214567 -0.37155137 -0.51550038
vn -0.63804494 0.57197727 -0.51550040
vn -0.85044612 0.10488453 -0.51550037
vn -0.22752328 0.82613102 -0.51550043
vn -0.65873595 0.54802033 -0.51550040
vn 0.25523543 0.81799400 -0.51550042
vn -0.25788177 0.81716357 -0.51550042
vn 0.65695868 0.55014965 -0.51550040
vn 0.22484807 0.82686314 -0.51550043
vn 0.85010217 0.10763669 -0.51550037
vn 0.63619023 0.57403949 -0.51550040
vn 0.42870248 -0.28583240 0.85703793
vn 0.49136597 0.15506601 0.85703793
vn 0.20611480 -0.47223156 0.85703795
vn 0.49719839 -0.13520263 0.85703793
vn -8.1912896e-2 -0.50870053 0.85703795
vn 0.34517384 -0.38254541 0.85703794
vn -0.34393381 -0.38366066 0.85703794
vn 8.3559022e-2 -0.50843273 0.85703795
vn -0.49675816 -0.13681125 0.85703793
vn -0.20458520 -0.47289624 0.85703795
vn -0.49186531 0.15347475 0.85703793
vn -0.42777505 -0.28721852 0.85703793
vn -0.33080872 0.39503362 0.85703794
vn -0.51514934 -1.0350977e-2 0.85703793
vn -6.4722675e-2 0.51117211 0.85703795
vn -0.43896738 0.26980293 0.85703793
vn 0.22191237 0.46501705 0.85703795
vn -0.22341637 0.46429634 0.85703795
vn 0.43809178 0.27122236 0.85703793
vn 6.3067781e-2 0.51137893 0.85703795
vn 0.51518015 -8.6834941e-3 0.85703793
vn 0.32952835 0.39610231 0.85703794
vn 0.42870248 -0.28583240 -0.85703793
vn 0.49136597 0.15506601 -0.85703793
vn 0.20611480 -0.47223156 -0.85703795
vn 0.49719839 -0.13520263 -0.85703793
vn -8.1912896e-2 -0.50870053 -0.85703795
vn 0.34517384 -0.38254541 -0.85703794
vn -0.34393381 -0.38366066 -0.85703794
vn 8.3559022e-2 -0.50843273 -0.85703795
vn -0.49675816 -0.13681125 -0.85703793
vn -0.20458520 -0.47289624 -0.85703795
vn -0.49186531 0.15347475 -0.85703793
vn -0.42777505 -0.28721852 -0.85703793
vn -0.33080872 0.39503362 -0.85703794
vn -0.51514934 -1.0350977e-2 -0.85703793
vn -6.4722675e-2 0.51117211 -0.85703795
vn -0.43896738 0.26980293 -0.85703793
vn 0.22191237 0.46501705 -0.85703795
vn -0.22341637 0.46429634 -0.85703795
vn 0.43809178 0.27122236 -0.85703793
vn 6.3067781e-2 0.51137893 -0.85703795
vn 0.51518015 -8.6834941e-3 -0.85703793
vn 0.32952835 0.39610231 -0.85703794
vn -0.29327166 0.63943456 0.71071456
vn -0.46154165 0.53090878 0.71071456
vn -0.59242025 0.37937194 0.71071455
vn -0.67530449 0.19710067 0.71071455
vn -0.70347959 -1.1385094e-3 0.71071455
vn -0.67466298 -0.19928545 0.71071455
vn -0.59118920 -0.38128749 0.71071455
vn -0.45982079 -0.53239991 0.71071456
vn -0.29120041 -0.64038047 0.71071456
vn -9.8988684e-2 -0.69648120 0.71071456
vn 0.10124253 -0.69615714 0.71071456
vn 0.29327166 -0.63943456 0.71071456
vn 0.46154165 -0.53090878 0.71071456
vn 0.59242025 -0.37937194 0.71071455
vn 0.67530449 -0.19710067 0.71071455
vn 0.70347959 1.1385094e-3 0.71071455
vn 0.67466298 0.19928545 0.71071455
vn 0.59118920 0.38128749 0.71071455
vn 0.45982079 0.53239991 0.71071456
vn 0.29120041 0.64038047 0.71071456
vn 9.8988684e-2 0.69648120 0.71071456
vn -0.10124253 0.69615714 0.71071456
vn 0.29327166 -0.63943456 -0.71071456
vn 0.10124253 -0.69615714 -0.71071456
vn -9.8988684e-2 -0.69648120 -0.71071456
vn -0.29120041 -0.64038047 -0.71071456
vn -0.45982079 -0.53239991 -0.71071456
vn -0.59118920 -0.38128749 -0.71071455
vn -0.67466298 -0.19928545 -0.71071455
vn -0.70347959 -1.1385094e-3 -0.71071455
vn -0.67530449 0.19710067 -0.71071455
vn -0.59242025 0.37937194 -0.71071455
vn -0.46154165 0.53090878 -0.71071456
vn -0.29327166 0.63943456 -0.71071456
vn -0.10124253 0.69615714 -0.71071456
vn 9.8988684e-2 0.69648120 -0.71071456
vn 0.29120041 0.64038047 -0.71071456
vn 0.45982079 0.53239991 -0.71071456
vn 0.59118920 0.38128749 -0.71071455
vn 0.67466298 0.19928545 -0.71071455
vn 0.70347959 1.1385094e-3 -0.71071455
vn 0.67530449 -0.19710067 -0.71071455
vn 0.59242025 -0.37937194 -0.71071455
vn 0.46154165 -0.53090878 -0.71071456
g cylinder2_default
usemtl default
s 1
f 1//1 22//22 66//66 45//45
f 1//1 23//23 44//44 22//22
f 2//2 46//46 47//47 3//3
f 3//3 25//25 24//24 2//2
f 4//4 48//48 49//49 5//5
f 5//5 27//27 26//26 4//4
f 6//6 50//50 51//51 7//7
f 7//7 29//29 28//28 6//6
f 8//8 52//52 53//53 9//9
f 9//9 31//31 30//30 8//8
f 10//10 54//54 55//55 11//11
f 11//11 33//33 32//32 10//10
f 12//12 56//56 57//57 13//13
f 13//13 35//35 34//34 12//12
f 14//14 58//58 59//59 15//15
f 15//15 37//37 36//36 14//14
f 16//16 60//60 61//61 17//17
f 17//17 39//39 38//38 16//16
f 18//18 62//62 63//63 19//19
f 19//19 41//41 40//40 18//18
f 20//20 64//64 65//65 21//21
f 21//21 43//43 42//42 20//20
f 24//24 68//68 46//46 2//2
f 25//25 69//69 68//68 24//24
f 26//26 70//70 48//48 4//4
f 27//27 71//71 70//70 26//26
f 28//28 72//72 50//50 6//6
f 29//29 73//73 72//72 28//28
f 30//30 74//74 52//52 8//8
f 31//31 75//75 74//74 30//30
f 32//32 76//76 54//54 10//10
f 33//33 77//77 76//76 32//32
f 34//34 78//78 56//56 12//12
f 35//35 79//79 78//78 34//34
f 36//36 80//80 58//58 14//14
f 37//37 81//81 80//80 36//36
f 38//38 82//82 60//60 16//16
f 39//39 83//83 82//82 38//38
f 40//40 84//84 62//62 18//18
f 41//41 85//85 84//84 40//40
f 42//42 86//86 64//64 20//20
f 43//43 87//87 86//86 42//42
f 44//44 88//88 66//66 22//22
f 45//45 67//67 23//23 1//1
f 45//45 93//93 92//92 46//46
f 46//46 92//92 91//91 47//47
f 47//47 48//48 70//70 69//69
f 47//47 69//69 25//25 3//3
f 47//47 91//91 90//90 48//48
f 48//48 90//90 89//89 49//49
f 49//49 71//71 27//27 5//5
f 49//49 89//89 110//110 50//50
f 50//50 110//110 109//109 51//51
f 51//51 73//73 29//29 7//7
f 51//51 109//109 108//108 52//52
f 52//52 108//108 107//107 53//53
f 53//53 54//54 76//76 75//75
f 53//53 75//75 31//31 9//9
f 53//53 107//107 106//106 54//54
f 54//54 106//106 105//105 55//55
f 55//55 77//77 33//33 11//11
f 55//55 105//105 104//104 56//56
f 56//56 104//104 103//103 57//57
f 57//57 79//79 35//35 13//13
f 57//57 103//103 102//102 58//58
f 58//58 102//102 101//101 59//59
f 59//59 81//81 37//37 15//15
f 59//59 101//101 100//100 60//60
f 60//60 100//100 99//99 61//61
f 61//61 62//62 84//84 83//83
f 61//61 83//83 39//39 17//17
f 61//61 99//99 98//98 62//62
f 62//62 98//98 97//97 63//63
f 63//63 85//85 41//41 19//19
f 63//63 97//97 96//96 64//64
f 64//64 96//96 95//95 65//65
f 65//65 66//66 88//88 87//87
f 65//65 87//87 43//43 21//21
f 65//65 95//95 94//94 66//66
f 66//66 94//94 93//93 45//45
f 67//67 88//88 44//44 23//23
f 67//67 118//118 117//117 88//88
f 68//68 67//67 45//45 46//46
f 68//68 119//119 118//118 67//67
f 69//69 120//120 119//119 68//68
f 70//70 121//121 120//120 69//69
f 71//71 122//122 121//121 70//70
f 72//72 71//71 49//49 50//50
f 72//72 123//123 122//122 71//71
f 73//73 124//124 123//123 72//72
f 74//74 73//73 51//51 52//52
f 74//74 125//125 124//124 73//73
f 75//75 126//126 125//125 74//74
f 76//76 127//127 126//126 75//75
f 77//77 128//128 127//127 76//76
f 78//78 77//77 55//55 56//56
f 78//78 129//129 128//128 77//77
f 79//79 130//130 129//129 78//78
f 80//80 79//79 57//57 58//58
f 80//80 131//131 130//130 79//79
f 81//81 132//132 131//131 80//80
f 82//82 81//81 59//59 60//60
f 82//82 111//111 132//132 81//81
f 83//83 112//112 111//111 82//82
f 84//84 113//113 112//112 83//83
f 85//85 114//114 113//113 84//84
f 86//86 85//85 63//63 64//64
f 86//86 115//115 114//114 85//85
f 87//87 116//116 115//115 86//86
f 88//88 117//117 116//116 87//87
f 89//89 122//122 123//123 110//110
f 90//90 121//121 122//122 89//89
f 91//91 120//120 121//121 90//90
f 92//92 119//119 120//120 91//91
f 93//93 118//118 119//119 92//92
f 94//94 117//117 118//118 93//93
f 95//95 116//116 117//117 94//94
f 96//96 115//115 116//116 95//95
f 97//97 114//114 115//115 96//96
f 98//98 113//113 114//114 97//97
f 99//99 112//112 113//113 98//98
f 100//100 111//111 112//112 99//99
f 101//101 132//132 111//111 100//100
f 102//102 131//131 132//132 101//101
f 103//103 130//130 131//131 102//102
f 104//104 129//129 130//130 103//103
f 105//105 128//128 129//129 104//104
f 106//106 127//127 128//128 105//105
f 107//107 126//126 127//127 106//106
f 108//108 125//125 126//126 107//107
f 109//109 124//124 125//125 108//108
f 110//110 123//123 124//124 109//109
